<svg width="840" height="520" viewBox="0 0 840 520" fill="none" xmlns="http://www.w3.org/2000/svg">
  <rect width="840" height="520" rx="32" fill="#0F172A"/>
  <rect x="28" y="28" width="784" height="464" rx="24" fill="#0B1220" stroke="#1F2937" stroke-width="2"/>
  <rect x="68" y="88" width="200" height="320" rx="16" fill="#111827" stroke="#1F2937" stroke-width="2"/>
  <rect x="320" y="88" width="200" height="320" rx="16" fill="#111827" stroke="#1F2937" stroke-width="2"/>
  <rect x="572" y="88" width="200" height="320" rx="16" fill="#111827" stroke="#1F2937" stroke-width="2"/>
  <text x="120" y="120" fill="#CBD5E1" font-family="Inter, Arial, sans-serif" font-size="18" font-weight="600">Backlog</text>
  <text x="372" y="120" fill="#CBD5E1" font-family="Inter, Arial, sans-serif" font-size="18" font-weight="600">In progress</text>
  <text x="648" y="120" fill="#CBD5E1" font-family="Inter, Arial, sans-serif" font-size="18" font-weight="600">Done</text>
  <rect x="92" y="148" width="152" height="64" rx="12" fill="#0EA5E9" opacity="0.12" stroke="#38BDF8" stroke-width="2"/>
  <rect x="92" y="228" width="152" height="64" rx="12" fill="#8B5CF6" opacity="0.12" stroke="#A855F7" stroke-width="2"/>
  <rect x="92" y="308" width="152" height="64" rx="12" fill="#F59E0B" opacity="0.12" stroke="#FACC15" stroke-width="2"/>
  <rect x="344" y="148" width="152" height="64" rx="12" fill="#22D3EE" opacity="0.16" stroke="#06B6D4" stroke-width="2"/>
  <rect x="344" y="228" width="152" height="64" rx="12" fill="#F97316" opacity="0.16" stroke="#FB923C" stroke-width="2"/>
  <rect x="596" y="148" width="152" height="64" rx="12" fill="#10B981" opacity="0.16" stroke="#34D399" stroke-width="2"/>
  <rect x="596" y="228" width="152" height="64" rx="12" fill="#67E8F9" opacity="0.1" stroke="#22D3EE" stroke-width="2"/>
  <text x="112" y="188" fill="#E2E8F0" font-family="Inter, Arial, sans-serif" font-size="15" font-weight="600">Outline post</text>
  <text x="112" y="268" fill="#E2E8F0" font-family="Inter, Arial, sans-serif" font-size="15" font-weight="600">Gather assets</text>
  <text x="112" y="348" fill="#E2E8F0" font-family="Inter, Arial, sans-serif" font-size="15" font-weight="600">Translate</text>
  <text x="364" y="188" fill="#E2E8F0" font-family="Inter, Arial, sans-serif" font-size="15" font-weight="600">Polish intro</text>
  <text x="364" y="268" fill="#E2E8F0" font-family="Inter, Arial, sans-serif" font-size="15" font-weight="600">QA links</text>
  <text x="616" y="188" fill="#E2E8F0" font-family="Inter, Arial, sans-serif" font-size="15" font-weight="600">Publish</text>
  <text x="616" y="268" fill="#E2E8F0" font-family="Inter, Arial, sans-serif" font-size="15" font-weight="600">Share</text>
  <text x="88" y="440" fill="#F8FAFC" font-family="Inter, Arial, sans-serif" font-size="18">Shipping board · Markdown draft</text>
</svg>
