<svg width="840" height="520" viewBox="0 0 840 520" fill="none" xmlns="http://www.w3.org/2000/svg">
  <rect width="840" height="520" rx="32" fill="#0F172A"/>
  <rect x="36" y="44" width="768" height="432" rx="24" fill="#0B1220" stroke="#1F2937" stroke-width="2"/>
  <text x="72" y="100" fill="#F8FAFC" font-family="Inter, Arial, sans-serif" font-size="22" font-weight="700">Learning Map</text>
  <rect x="88" y="136" width="664" height="296" rx="16" fill="#111827" stroke="#1F2937" stroke-width="2"/>
  <path d="M156 180 V408 M312 180 V408 M468 180 V408 M624 180 V408" stroke="#1F2937" stroke-width="2" stroke-dasharray="5 8"/>
  <text x="132" y="164" fill="#38BDF8" font-family="Inter, Arial, sans-serif" font-size="14" font-weight="600">Topic</text>
  <text x="288" y="164" fill="#A855F7" font-family="Inter, Arial, sans-serif" font-size="14" font-weight="600">Questions</text>
  <text x="444" y="164" fill="#F59E0B" font-family="Inter, Arial, sans-serif" font-size="14" font-weight="600">Projects</text>
  <text x="608" y="164" fill="#22C55E" font-family="Inter, Arial, sans-serif" font-size="14" font-weight="600">Notes (.md)</text>
  <rect x="116" y="204" width="92" height="54" rx="10" fill="#0EA5E9" opacity="0.15" stroke="#38BDF8" stroke-width="2"/>
  <rect x="272" y="228" width="92" height="54" rx="10" fill="#8B5CF6" opacity="0.15" stroke="#A78BFA" stroke-width="2"/>
  <rect x="428" y="248" width="92" height="54" rx="10" fill="#F59E0B" opacity="0.15" stroke="#FACC15" stroke-width="2"/>
  <rect x="584" y="268" width="92" height="54" rx="10" fill="#10B981" opacity="0.18" stroke="#34D399" stroke-width="2"/>
  <text x="120" y="238" fill="#E2E8F0" font-family="Inter, Arial, sans-serif" font-size="13" font-weight="600">Systems</text>
  <text x="276" y="262" fill="#E2E8F0" font-family="Inter, Arial, sans-serif" font-size="13" font-weight="600">Deep dive</text>
  <text x="432" y="282" fill="#E2E8F0" font-family="Inter, Arial, sans-serif" font-size="13" font-weight="600">Build</text>
  <text x="588" y="302" fill="#E2E8F0" font-family="Inter, Arial, sans-serif" font-size="13" font-weight="600">Export</text>
  <text x="96" y="440" fill="#E5E7EB" font-family="Inter, Arial, sans-serif" font-size="16">Every column exports to markdown with bilingual sections.</text>
</svg>
